<?xml version="1.0" encoding="UTF-8" standalone="no"?>
<!-- Created with Inkscape (http://www.inkscape.org/) -->

<svg
   width="270mm"
   height="140mm"
   viewBox="0 0 270 140"
   version="1.1"
   id="svg5"
   inkscape:version="1.1.1 (3bf5ae0d25, 2021-09-20)"
   sodipodi:docname="airplane_big.svg"
   xmlns:inkscape="http://www.inkscape.org/namespaces/inkscape"
   xmlns:sodipodi="http://sodipodi.sourceforge.net/DTD/sodipodi-0.dtd"
   xmlns="http://www.w3.org/2000/svg"
   xmlns:svg="http://www.w3.org/2000/svg">
  <sodipodi:namedview
     id="namedview7"
     pagecolor="#ffffff"
     bordercolor="#666666"
     borderopacity="1.0"
     inkscape:pageshadow="2"
     inkscape:pageopacity="0.0"
     inkscape:pagecheckerboard="true"
     inkscape:document-units="mm"
     showgrid="false"
     width="270mm"
     inkscape:zoom="0.75187991"
     inkscape:cx="440.22988"
     inkscape:cy="298.58492"
     inkscape:window-width="1852"
     inkscape:window-height="1016"
     inkscape:window-x="1988"
     inkscape:window-y="27"
     inkscape:window-maximized="1"
     inkscape:current-layer="layer1">
    <sodipodi:guide
       position="0,140"
       orientation="0,1020.4724"
       id="guide1026" />
    <sodipodi:guide
       position="270.00001,140"
       orientation="529.13386,0"
       id="guide1028" />
    <sodipodi:guide
       position="270.00001,0"
       orientation="0,-1020.4724"
       id="guide1030" />
    <sodipodi:guide
       position="0,0"
       orientation="-529.13386,0"
       id="guide1032" />
  </sodipodi:namedview>
  <defs
     id="defs2" />
  <g
     inkscape:label="Calque 1"
     inkscape:groupmode="layer"
     id="layer1">
    <rect
       style="fill:#121212;fill-opacity:1;stroke-width:0.264583"
       id="rect892"
       width="270"
       height="140"
       x="0"
       y="3.0588221e-06" />
    <g
       id="g2216"
       transform="matrix(0.26458333,0,0,0.26458333,0.61225566,-64.36203)"
       style="fill:#ffffff;fill-opacity:0.07999998">
      <path
         d="m 334.3,566.5 1.5,-9.1 c 36.5,7.5 64.6,14.8 83.9,21.3 -2.7,-8.5 -4.2,-17.6 -4.2,-27 0,-3.2 0.2,-6.4 0.5,-9.5 C 298.5,529.8 180.5,520.3 62,513.6 L 45.3,489.2 c -0.2,-0.3 -0.4,-0.5 -0.7,-0.7 -0.3,-0.2 -0.6,-0.3 -0.9,-0.3 L 42.1,488 c -0.7,-0.1 -1.4,0.1 -1.9,0.7 -0.5,0.6 -0.6,1.3 -0.4,2 l 8.1,25.8 c -0.1,0.3 0.1,0.4 0.7,0.5 41,3.9 79,8.2 114,12.6 l -14.2,10 v 0 c -0.4,0 -0.8,0 -1.3,0.1 -24.6,2.4 -29.3,33.9 -6.2,43.2 14.5,4.9 29.3,-6.5 37.8,-12.8 13.3,-9.8 5.4,-21.2 -1.6,-24.5 -0.2,-0.1 -0.5,-0.2 -0.7,-0.4 l 4.9,-2.8 5.6,-9.7 c 51.2,6.9 95.4,14.1 132,21.2 l -5.6,11.4 c -18.5,2.6 -24.3,19.3 -22.4,29.6 1.5,13.6 14.6,20.1 22.7,20 14.8,1 26.1,-13.5 29.4,-22.3 3,-7.6 1.2,-20 -8.7,-26.1 z m -187.1,10.4 c -7.7,0 -13.9,-6.7 -13.9,-15 0,-8.3 6.2,-15 13.9,-15 7.7,0 13.9,6.7 13.9,15 0,8.3 -6.2,15 -13.9,15 z M 314,606.7 c -8.8,0 -16,-7.1 -16,-16 0,-8.8 7.1,-16 16,-16 8.8,0 16,7.1 16,16 -0.1,8.9 -7.2,16 -16,16 z"
         id="path2210"
         style="fill:#ffffff;fill-opacity:0.07999998" />
      <path
         d="m 636.5,488.7 -76.1,4.7 c -12,-10.6 -27.3,-17.6 -44.2,-19.2 L 510,386.8 c 0,-1 -2.9,-1 -2.9,0 l -6.2,87.4 c -16.9,1.6 -32.2,8.6 -44.2,19.2 l -76.1,-4.7 c -1.5,-0.2 -1.5,2.6 0,2.8 l 65.3,13.6 c -9.8,13 -15.6,29.1 -15.6,46.6 0,43 35.1,77.9 78.3,77.9 43.2,0 78.3,-34.9 78.3,-77.9 0,-17.5 -5.8,-33.6 -15.6,-46.6 l 65.3,-13.6 c 1.4,-0.2 1.4,-2.9 -0.1,-2.8 z m -168.8,34.6 -1.1,4.8 c -0.3,1.4 -0.8,2.8 -1.5,4 l -1.5,2.6 c -0.7,1.2 -1.8,2.2 -3.1,2.6 l -1.2,0.4 c -1.4,0.5 -2.8,0.7 -4.2,0.6 l -6.3,-0.5 c -0.9,-0.1 -1.4,-1.2 -0.8,-1.9 l 11.7,-15.2 c 0.8,-1.1 2.2,-1.7 3.5,-1.6 l 2.8,0.2 c 0.8,0.1 1.4,0.6 1.6,1.3 0.3,1.1 0.3,1.9 0.1,2.7 z m 33.9,10 c 0,0.9 -0.7,1.6 -1.6,1.6 L 478.3,534 c -0.9,0 -1.6,-0.7 -1.6,-1.6 l 3.1,-11.6 c 0,-0.9 0.7,-1.6 1.6,-1.6 H 500 c 0.9,0 1.6,0.7 1.6,1.6 z m 37.1,0.7 -21.7,0.9 c -0.9,0 -1.6,-0.7 -1.6,-1.6 v -12.5 c 0,-0.9 0.7,-1.6 1.6,-1.6 h 18.6 c 0.9,0 1.6,0.7 1.6,1.6 l 3.1,11.6 c 0,0.9 -0.7,1.6 -1.6,1.6 z m 29.4,4 -6.3,0.5 c -1.4,0.1 -2.9,-0.1 -4.2,-0.6 l -1.2,-0.4 c -1.3,-0.5 -2.4,-1.4 -3.1,-2.6 l -1.5,-2.6 c -0.7,-1.3 -1.2,-2.6 -1.5,-4 l -1.1,-4.8 c -0.2,-0.8 -0.2,-1.7 0.1,-2.5 0.2,-0.7 0.9,-1.3 1.6,-1.3 l 2.8,-0.2 c 1.4,-0.1 2.7,0.5 3.5,1.6 l 11.7,15.2 c 0.7,0.5 0.2,1.6 -0.8,1.7 z"
         id="path2212"
         style="fill:#ffffff;fill-opacity:0.07999998" />
      <path
         d="m 975.6,488.8 c -0.5,-0.6 -1.2,-0.8 -1.9,-0.7 l -1.6,0.2 c -0.3,0 -0.6,0.2 -0.9,0.3 -0.3,0.2 -0.5,0.4 -0.7,0.7 l -16.7,24.4 c -118.1,6.6 -235.7,16.1 -352.8,28.4 0.3,3.2 0.5,6.4 0.5,9.7 0,9.2 -1.4,18.2 -4.1,26.5 19.2,-6.4 46.8,-13.5 82.5,-20.8 l 1.5,9.1 c -9.9,6.1 -11.7,18.5 -8.7,26.4 3.3,8.8 14.6,23.2 29.4,22.3 8.1,0 21.2,-6.5 22.7,-20 1.9,-10.3 -3.9,-27.1 -22.4,-29.6 l -5.6,-11.4 c 36.7,-7.1 80.8,-14.3 132.1,-21.2 l 5.6,9.7 4.9,2.8 c -0.2,0.1 -0.5,0.2 -0.7,0.4 -7,3.3 -14.9,14.6 -1.6,24.5 8.5,6.3 23.3,17.7 37.8,12.8 23.1,-9.3 18.4,-40.9 -6.2,-43.2 -0.4,0 -0.8,0 -1.3,-0.1 v 0 l -14.2,-10 c 35,-4.4 73,-8.7 114,-12.6 0.6,-0.1 0.8,-0.2 0.7,-0.5 l 8.1,-25.8 c 0.3,-0.9 0.1,-1.7 -0.4,-2.3 z m -257.8,102 c 0,8.8 -7.1,16 -16,16 -8.8,0 -16,-7.1 -16,-16 0,-8.8 7.1,-16 16,-16 8.8,0 16,7.2 16,16 z m 164.6,-28.9 c 0,8.3 -6.2,15 -13.9,15 -7.7,0 -13.9,-6.7 -13.9,-15 0,-8.3 6.2,-15 13.9,-15 7.7,0 13.9,6.8 13.9,15 z"
         id="path2214"
         style="fill:#ffffff;fill-opacity:0.07999998" />
    </g>
  </g>
</svg>
